<svg width="190" height="58" viewBox="0 0 190 58" fill="none"
  xmlns="http://www.w3.org/2000/svg">
  <path d="M182.655 1.29822C184.257 1.30028 185.793 1.93504 186.925 3.06329C188.058 4.19154 188.695 5.72119 188.697 7.31677V50.245C188.695 51.8407 188.058 53.3706 186.925 54.4989C185.793 55.6272 184.257 56.2619 182.655 56.2636H7.3446C5.74284 56.2619 4.20718 55.6272 3.07457 54.4989C1.94195 53.3706 1.30488 51.8407 1.30315 50.245V7.31677C1.30522 5.72119 1.94238 4.19154 3.07492 3.06329C4.20746 1.93504 5.74294 1.30028 7.3446 1.29822H182.655ZM182.655 0H7.3446C5.39669 0 3.52857 0.77087 2.15119 2.14303C0.773816 3.51519 0 5.37624 0 7.31677V50.245C0 52.1856 0.773816 54.0466 2.15119 55.4188C3.52857 56.791 5.39669 57.5618 7.3446 57.5618H182.655C183.62 57.5618 184.575 57.3726 185.466 57.0049C186.357 56.6372 187.167 56.0982 187.849 55.4188C188.531 54.7394 189.072 53.9328 189.441 53.0451C189.81 52.1574 190 51.2059 190 50.245V7.31677C190 6.35592 189.81 5.40447 189.441 4.51675C189.072 3.62904 188.531 2.82246 187.849 2.14303C187.167 1.46361 186.357 0.92466 185.466 0.556958C184.575 0.189256 183.62 0 182.655 0Z" fill="#C4C4C4"/>
  <path d="M20.0059 23.5196C16.9227 28.8423 18.8826 36.9341 22.2917 41.8362C23.9923 44.2886 25.715 46.489 28.0738 46.489H28.2041C29.3117 46.4462 30.1132 46.1061 30.8873 45.7776C31.7565 45.4076 32.6569 45.0259 34.067 45.0259C35.4092 45.0259 36.2654 45.3959 37.0929 45.7516C37.9204 46.1074 38.7505 46.4683 39.9924 46.4449C42.6495 46.3956 44.2811 44.0211 45.7263 41.9271C46.8038 40.3479 47.649 38.6233 48.2362 36.8056L48.2466 36.7732C48.2697 36.7035 48.2663 36.6278 48.237 36.5605C48.2076 36.4933 48.1545 36.4391 48.0876 36.4083L48.0655 36.398C47.5976 36.2084 43.4927 34.3935 43.4497 29.4486C43.4093 25.4319 46.5291 23.3041 47.1546 22.9185L47.1845 22.9003C47.218 22.8789 47.2468 22.851 47.2692 22.8182C47.2916 22.7854 47.3071 22.7484 47.3149 22.7095C47.3228 22.6705 47.3229 22.6304 47.3151 22.5913C47.3072 22.5523 47.2917 22.5153 47.2692 22.4823C45.1151 19.3432 41.8155 18.8694 40.4863 18.8135C40.2897 18.7937 40.0923 18.7837 39.8947 18.7837C38.3309 18.7837 36.8388 19.3718 35.6386 19.843C34.8085 20.1689 34.093 20.4506 33.5992 20.4506C33.044 20.4506 32.3233 20.165 31.4906 19.8365C30.3738 19.3952 29.1098 18.8953 27.7727 18.8953H27.6776C24.5657 18.9382 21.6323 20.7115 20.0059 23.5196Z" fill="#C4C4C4"/>
  <path d="M40.489 10.1689C38.6047 10.2455 36.345 11.4009 34.9936 12.9769C33.8456 14.3024 32.7248 16.512 33.0193 18.7384C33.0279 18.8065 33.0598 18.8696 33.1097 18.9169C33.1595 18.9642 33.2243 18.9929 33.293 18.9981C33.4233 19.0085 33.5536 19.0137 33.684 19.0137C35.5266 19.0137 37.5139 17.9972 38.8718 16.3627C40.3053 14.6374 41.0221 12.4213 40.8044 10.4363C40.7962 10.36 40.7589 10.2897 40.7002 10.24C40.6416 10.1902 40.566 10.1648 40.489 10.1689Z" fill="#C4C4C4"/>
  <path d="M62.1694 10.0156H65.7414C66.609 9.99927 67.467 10.1983 68.2382 10.5946C68.942 10.9593 69.529 11.5134 69.9323 12.194C70.3305 12.9026 70.5397 13.7012 70.5397 14.5133C70.5397 15.3254 70.3305 16.1239 69.9323 16.8325C69.529 17.5134 68.9421 18.068 68.2382 18.4333C67.4669 18.8292 66.6089 19.0277 65.7414 19.011H62.1694V10.0156ZM65.688 18.4203C66.4523 18.4362 67.2091 18.2664 67.8929 17.9257C68.5076 17.6169 69.0189 17.1364 69.3641 16.543C69.7028 15.9197 69.8801 15.2221 69.8801 14.5133C69.8801 13.8045 69.7028 13.1069 69.3641 12.4835C69.0188 11.8905 68.5075 11.4105 67.8929 11.1022C67.2092 10.761 66.4524 10.5908 65.688 10.6063H62.821V18.4203H65.688Z" fill="#C4C4C4"/>
  <path d="M73.5268 18.6257C73.02 18.3399 72.6027 17.9197 72.3213 17.4118C72.0337 16.8721 71.8833 16.2703 71.8833 15.6592C71.8833 15.0481 72.0337 14.4464 72.3213 13.9066C72.6027 13.3987 73.02 12.9786 73.5268 12.6928C74.055 12.4058 74.6472 12.2554 75.2489 12.2554C75.8506 12.2554 76.4427 12.4058 76.971 12.6928C77.4774 12.9789 77.8946 13.399 78.1764 13.9066C78.464 14.4464 78.6145 15.0481 78.6145 15.6592C78.6145 16.2703 78.464 16.8721 78.1764 17.4118C77.8946 17.9194 77.4774 18.3395 76.971 18.6257C76.4427 18.9127 75.8506 19.0631 75.2489 19.0631C74.6472 19.0631 74.055 18.9127 73.5268 18.6257ZM76.6361 18.1245C77.0439 17.8842 77.3781 17.5377 77.603 17.1223C77.836 16.6688 77.9575 16.1667 77.9575 15.6573C77.9575 15.1479 77.836 14.6457 77.603 14.1922C77.3781 13.7768 77.0439 13.4303 76.6361 13.19C76.2121 12.9542 75.7345 12.8304 75.2489 12.8304C74.7633 12.8304 74.2857 12.9542 73.8617 13.19C73.4535 13.4298 73.1191 13.7764 72.8947 14.1922C72.6618 14.6457 72.5403 15.1479 72.5403 15.6573C72.5403 16.1667 72.6618 16.6688 72.8947 17.1223C73.1191 17.5381 73.4535 17.8848 73.8617 18.1245C74.2857 18.3603 74.7633 18.4841 75.2489 18.4841C75.7345 18.4841 76.2121 18.3603 76.6361 18.1245Z" fill="#C4C4C4"/>
  <path d="M90.0478 12.3032L87.4936 19.0111H86.8877L84.6176 13.1899L82.3345 19.0111H81.7402L79.186 12.3032H79.8063L82.0504 18.2919L84.3465 12.3032H84.9004L87.1835 18.275L89.4549 12.3032H90.0478Z" fill="#C4C4C4"/>
  <path d="M96.8245 12.9845C97.3162 13.4726 97.5616 14.1749 97.5607 15.0915V19.0108H96.9157V15.1434C96.9157 14.3896 96.7241 13.8153 96.341 13.4207C95.9579 13.026 95.4227 12.8291 94.7355 12.83C93.9441 12.83 93.3207 13.0654 92.8655 13.5362C92.4103 14.007 92.1822 14.641 92.1814 15.4381V19.0108H91.5298V12.3029H92.1488V13.7556C92.3759 13.2903 92.7394 12.9046 93.1913 12.6495C93.6899 12.3745 94.2531 12.2369 94.8228 12.251C95.6699 12.251 96.3371 12.4955 96.8245 12.9845Z" fill="#C4C4C4"/>
  <path d="M100.222 9.47559H100.864V19.011H100.221L100.222 9.47559Z" fill="#C4C4C4"/>
  <path d="M104.498 18.6257C103.99 18.3399 103.573 17.9198 103.291 17.4118C103.004 16.8718 102.854 16.2702 102.854 15.6592C102.854 15.0483 103.004 14.4466 103.291 13.9066C103.573 13.3987 103.99 12.9785 104.498 12.6928C105.026 12.4058 105.618 12.2554 106.22 12.2554C106.821 12.2554 107.414 12.4058 107.942 12.6928C108.448 12.9789 108.865 13.399 109.147 13.9066C109.435 14.4464 109.585 15.0481 109.585 15.6592C109.585 16.2703 109.435 16.8721 109.147 17.4118C108.865 17.9194 108.448 18.3395 107.942 18.6257C107.414 18.9127 106.821 19.0631 106.22 19.0631C105.618 19.0631 105.026 18.9127 104.498 18.6257ZM107.606 18.1245C108.014 17.8848 108.349 17.5382 108.574 17.1223C108.807 16.6688 108.928 16.1667 108.928 15.6573C108.928 15.1479 108.807 14.6457 108.574 14.1922C108.349 13.7763 108.014 13.4297 107.606 13.19C107.182 12.9542 106.704 12.8304 106.219 12.8304C105.734 12.8304 105.256 12.9542 104.832 13.19C104.424 13.4298 104.09 13.7764 103.866 14.1922C103.632 14.6455 103.51 15.1477 103.51 15.6573C103.51 16.1669 103.632 16.6691 103.866 17.1223C104.09 17.5381 104.424 17.8848 104.832 18.1245C105.256 18.3604 105.734 18.4842 106.219 18.4842C106.704 18.4842 107.182 18.3604 107.606 18.1245Z" fill="#C4C4C4"/>
  <path d="M115.751 12.8873C116.199 13.3114 116.423 13.9349 116.423 14.758V19.011H115.804V17.8153C115.589 18.2091 115.261 18.5294 114.861 18.7344C114.402 18.9637 113.892 19.0765 113.378 19.0629C112.63 19.0629 112.039 18.8872 111.605 18.5358C111.404 18.3689 111.242 18.1611 111.129 17.9264C111.016 17.6918 110.955 17.4356 110.951 17.1754C110.946 16.9152 110.997 16.657 111.101 16.4182C111.205 16.1795 111.359 15.9657 111.553 15.7914C111.953 15.4452 112.592 15.2721 113.468 15.2721H115.778V14.732C115.778 14.1063 115.608 13.6303 115.268 13.304C114.928 12.9777 114.432 12.8146 113.779 12.8146C113.34 12.8126 112.905 12.891 112.495 13.0457C112.111 13.1836 111.758 13.3929 111.452 13.6623L111.129 13.2001C111.484 12.8895 111.896 12.6513 112.342 12.4991C112.819 12.332 113.32 12.2473 113.825 12.2485C114.662 12.2503 115.304 12.4632 115.751 12.8873ZM114.894 18.1502C115.297 17.8776 115.606 17.4871 115.778 17.0325V15.7732H113.481C112.819 15.7732 112.342 15.8931 112.048 16.1328C111.902 16.2518 111.785 16.4032 111.708 16.575C111.631 16.7467 111.595 16.9341 111.604 17.1221C111.595 17.3217 111.635 17.5204 111.721 17.7012C111.806 17.8821 111.934 18.0397 112.094 18.1606C112.42 18.4125 112.88 18.5388 113.474 18.5397C113.975 18.5529 114.47 18.4173 114.894 18.1502Z" fill="#C4C4C4"/>
  <path d="M125.077 9.47559V19.011H124.451V17.4298C124.204 17.9331 123.814 18.3533 123.329 18.6384C122.832 18.9257 122.266 19.0725 121.691 19.0629C121.095 19.0707 120.507 18.9197 119.989 18.6254C119.487 18.3406 119.074 17.9227 118.796 17.4181C118.501 16.8781 118.352 16.271 118.363 15.6564C118.352 15.0402 118.501 14.4317 118.796 13.8895C119.072 13.3833 119.485 12.9649 119.989 12.6822C120.509 12.392 121.096 12.2434 121.691 12.2512C122.26 12.2423 122.819 12.3891 123.31 12.6757C123.788 12.9588 124.179 13.3681 124.438 13.8584V9.47559H125.077ZM123.11 18.1243C123.518 17.8845 123.853 17.5379 124.077 17.1221C124.31 16.6686 124.432 16.1665 124.432 15.6571C124.432 15.1476 124.31 14.6455 124.077 14.192C123.853 13.7762 123.518 13.4296 123.11 13.1898C122.686 12.954 122.209 12.8302 121.724 12.8302C121.238 12.8302 120.761 12.954 120.337 13.1898C119.929 13.4295 119.594 13.7761 119.369 14.192C119.136 14.6455 119.014 15.1476 119.014 15.6571C119.014 16.1665 119.136 16.6686 119.369 17.1221C119.594 17.538 119.929 17.8846 120.337 18.1243C120.761 18.3601 121.238 18.4839 121.724 18.4839C122.209 18.4839 122.686 18.3601 123.11 18.1243Z" fill="#C4C4C4"/>
  <path d="M132.023 18.6257C131.516 18.3395 131.099 17.9194 130.817 17.4118C130.53 16.8721 130.379 16.2703 130.379 15.6592C130.379 15.0481 130.53 14.4464 130.817 13.9066C131.099 13.399 131.516 12.9789 132.023 12.6928C132.551 12.4058 133.143 12.2554 133.745 12.2554C134.347 12.2554 134.939 12.4058 135.467 12.6928C135.974 12.9789 136.392 13.399 136.674 13.9066C136.961 14.4466 137.111 15.0483 137.111 15.6592C137.111 16.2702 136.961 16.8718 136.674 17.4118C136.392 17.9195 135.974 18.3395 135.467 18.6257C134.939 18.9127 134.347 19.0631 133.745 19.0631C133.143 19.0631 132.551 18.9127 132.023 18.6257ZM135.132 18.1245C135.54 17.8848 135.875 17.5381 136.099 17.1223C136.332 16.6688 136.454 16.1667 136.454 15.6573C136.454 15.1479 136.332 14.6457 136.099 14.1922C135.875 13.7764 135.54 13.4298 135.132 13.19C134.708 12.9542 134.231 12.8304 133.746 12.8304C133.26 12.8304 132.783 12.9542 132.359 13.19C131.95 13.4297 131.616 13.7763 131.391 14.1922C131.158 14.6457 131.036 15.1479 131.036 15.6573C131.036 16.1667 131.158 16.6688 131.391 17.1223C131.616 17.5382 131.95 17.8848 132.359 18.1245C132.783 18.3604 133.26 18.4842 133.746 18.4842C134.231 18.4842 134.708 18.3604 135.132 18.1245Z" fill="#C4C4C4"/>
  <path d="M144.4 12.9845C144.89 13.4726 145.135 14.175 145.135 15.0915V19.0108H144.49V15.1434C144.49 14.3896 144.299 13.8153 143.917 13.4207C143.534 13.026 142.999 12.8291 142.31 12.83C141.518 12.83 140.895 13.0654 140.44 13.5362C139.984 14.0071 139.756 14.641 139.756 15.4381V19.0108H139.112V12.3029H139.731V13.7556C139.958 13.2902 140.321 12.9045 140.773 12.6495C141.272 12.3745 141.836 12.2369 142.406 12.251C143.245 12.251 143.909 12.4955 144.4 12.9845Z" fill="#C4C4C4"/>
  <path d="M154.447 18.5866C154.272 18.7483 154.063 18.8694 153.835 18.941C153.587 19.0224 153.328 19.0636 153.067 19.0631C152.482 19.0631 152.03 18.9021 151.713 18.5802C151.396 18.2582 151.237 17.8107 151.236 17.2378V12.8563H149.993V12.3033H151.231V10.8389H151.876V12.3033H154.017V12.8563H151.876V17.1742C151.876 17.6104 151.98 17.9427 152.192 18.1699C152.403 18.3971 152.713 18.51 153.127 18.51C153.51 18.5226 153.883 18.3894 154.17 18.1375L154.447 18.5866Z" fill="#C4C4C4"/>
  <path d="M161.53 12.9847C162.02 13.4728 162.265 14.1751 162.265 15.0917V19.011H161.613V15.1436C161.613 14.3898 161.422 13.8155 161.039 13.4209C160.656 13.0262 160.12 12.8293 159.433 12.8302C158.643 12.8302 158.019 13.0656 157.563 13.5364C157.107 14.0072 156.879 14.6412 156.879 15.4383V19.011H156.234V9.47559H156.879V13.7039C157.104 13.2488 157.464 12.8739 157.911 12.6303C158.407 12.3683 158.962 12.2377 159.523 12.2512C160.371 12.2512 161.04 12.4957 161.53 12.9847Z" fill="#C4C4C4"/>
  <path d="M170.623 15.8109H164.831C164.84 16.3025 164.978 16.7832 165.231 17.2052C165.475 17.6068 165.825 17.9338 166.243 18.1503C166.654 18.3523 167.104 18.4653 167.562 18.4818C168.02 18.4984 168.476 18.4182 168.901 18.2464C169.266 18.0941 169.588 17.8537 169.836 17.5467L170.21 17.9699C169.914 18.3247 169.536 18.6027 169.108 18.78C168.59 18.9902 168.033 19.0853 167.475 19.0586C166.917 19.0319 166.371 18.8841 165.876 18.6255C165.362 18.3439 164.935 17.9261 164.644 17.4181C164.341 16.8809 164.187 16.2727 164.199 15.6565C164.19 15.0461 164.334 14.4432 164.618 13.9025C164.883 13.3995 165.283 12.9793 165.773 12.6887C166.275 12.4041 166.843 12.2544 167.421 12.2544C167.999 12.2544 168.566 12.4041 169.069 12.6887C169.555 12.9766 169.952 13.3926 170.217 13.8909C170.502 14.4288 170.647 15.0299 170.636 15.6383L170.623 15.8109ZM166.152 13.1314C165.774 13.3406 165.459 13.6467 165.24 14.0181C165.009 14.414 164.875 14.8589 164.849 15.3163H170.01C169.99 14.862 169.855 14.4199 169.619 14.0311C169.392 13.6556 169.07 13.3463 168.685 13.1343C168.3 12.9224 167.865 12.8152 167.425 12.8237C166.982 12.8158 166.543 12.9218 166.152 13.1314Z" fill="#C4C4C4"/>
  <path d="M71.719 38.8971H64.003L62.4822 42.4543H59.5293L66.4725 27.082H69.2938L76.2592 42.4543H73.2619L71.719 38.8971ZM70.7703 36.6564L67.8617 29.9368L64.9739 36.6564H70.7703Z" fill="#C4C4C4"/>
  <path d="M87.5565 31.343C88.4514 31.831 89.1893 32.5616 89.6846 33.4501C90.1914 34.4219 90.456 35.5011 90.456 36.5963C90.456 37.6915 90.1914 38.7707 89.6846 39.7425C89.192 40.636 88.4537 41.371 87.5565 41.8612C86.6133 42.3692 85.5545 42.6263 84.4824 42.6077C82.8952 42.6077 81.6385 42.0806 80.7124 41.0265V46.714H77.9575V30.7303H80.5808V32.2674C81.0288 31.7162 81.6087 31.2858 82.2671 31.0159C82.9703 30.7313 83.7235 30.5896 84.4824 30.5992C85.5543 30.5798 86.613 30.836 87.5565 31.343ZM86.6756 39.2479C87.329 38.5754 87.656 37.6896 87.6569 36.5905C87.6578 35.4913 87.3307 34.6059 86.6756 33.9343C86.0215 33.2601 85.1874 32.9234 84.1736 32.9243C83.5491 32.9147 82.9332 33.0696 82.3882 33.3735C81.8566 33.6758 81.4212 34.1212 81.132 34.6587C80.8271 35.2576 80.6681 35.9196 80.6681 36.5911C80.6681 37.2626 80.8271 37.9247 81.132 38.5235C81.4212 39.061 81.8566 39.5064 82.3882 39.8088C82.9332 40.1126 83.5491 40.2676 84.1736 40.2579C85.1874 40.2579 86.0215 39.9213 86.6756 39.2479Z" fill="#C4C4C4"/>
  <path d="M102.678 31.3426C103.573 31.8306 104.311 32.5611 104.806 33.4496C105.313 34.4215 105.578 35.5006 105.578 36.5958C105.578 37.6911 105.313 38.7702 104.806 39.7421C104.314 40.6356 103.575 41.3705 102.678 41.8608C101.734 42.3689 100.675 42.626 99.6027 42.6072C98.0163 42.6072 96.7601 42.0802 95.834 41.026V46.7135H93.0791V30.7298H95.701V32.2669C96.1496 31.7162 96.7293 31.286 97.3873 31.0154C98.0906 30.7311 98.8438 30.5894 99.6027 30.5987C100.675 30.5792 101.734 30.8354 102.678 31.3426ZM101.797 39.2474C102.451 38.575 102.777 37.6892 102.777 36.59C102.777 35.4908 102.451 34.6054 101.797 33.9338C101.143 33.2596 100.309 32.9229 99.2951 32.9238C98.6707 32.9142 98.0548 33.0691 97.5098 33.373C96.9782 33.6758 96.5426 34.1211 96.2523 34.6582C95.9483 35.2574 95.79 35.9193 95.79 36.5906C95.79 37.262 95.9483 37.9239 96.2523 38.523C96.5422 39.0605 96.978 39.5058 97.5098 39.8083C98.0548 40.1121 98.6707 40.2671 99.2951 40.2575C100.309 40.2575 101.143 39.9208 101.797 39.2474Z" fill="#C4C4C4"/>
  <path d="M115.882 42.1689C114.773 41.8331 113.895 41.3865 113.248 40.8291L114.24 38.6117C114.94 39.1453 115.726 39.5571 116.565 39.8295C117.454 40.1397 118.389 40.2994 119.331 40.302C120.478 40.302 121.334 40.119 121.9 39.7529C122.465 39.3868 122.748 38.9038 122.748 38.3041C122.753 38.0993 122.714 37.8959 122.632 37.708C122.55 37.5201 122.429 37.3523 122.275 37.2161C121.925 36.9129 121.516 36.6852 121.074 36.5476C120.587 36.3866 119.925 36.2035 119.089 35.9984C118.12 35.7815 117.167 35.5027 116.235 35.1637C115.512 34.8886 114.868 34.4395 114.361 33.8563C113.84 33.2644 113.579 32.4629 113.579 31.452C113.572 30.628 113.814 29.8209 114.274 29.136C114.737 28.4436 115.435 27.891 116.368 27.4782C117.301 27.0653 118.444 26.8602 119.796 26.8628C120.733 26.8622 121.667 26.9804 122.573 27.2146C123.411 27.4166 124.209 27.758 124.932 28.2247L124.028 30.442C123.364 30.0527 122.653 29.7503 121.911 29.5423C121.217 29.3429 120.497 29.2393 119.774 29.2347C118.645 29.2347 117.803 29.4251 117.25 29.8059C116.993 29.9665 116.783 30.1903 116.638 30.4557C116.493 30.721 116.419 31.019 116.424 31.3209C116.418 31.524 116.457 31.7259 116.539 31.912C116.621 32.0981 116.743 32.2638 116.897 32.3971C117.249 32.6947 117.658 32.9186 118.098 33.0553C118.583 33.2163 119.244 33.3994 120.082 33.6045C121.041 33.8124 121.984 34.0874 122.904 34.4276C123.629 34.7067 124.275 35.1551 124.789 35.7349C125.31 36.3208 125.571 37.1114 125.571 38.1067C125.579 38.9275 125.338 39.7315 124.877 40.4124C124.414 41.1047 123.712 41.6535 122.772 42.0585C121.832 42.4636 120.685 42.6687 119.332 42.6739C118.163 42.677 117 42.5068 115.882 42.1689Z" fill="#C4C4C4"/>
  <path d="M135.225 41.817C134.877 42.0933 134.475 42.2952 134.045 42.4103C133.568 42.5436 133.075 42.6101 132.579 42.6077C131.287 42.6077 130.287 42.271 129.582 41.5976C128.877 40.9243 128.524 39.9433 128.524 38.6546V33.0112H126.583V30.8159H128.524V28.1338H131.279V30.8133H134.431V33.0086H131.279V38.591C131.279 39.1613 131.419 39.5966 131.698 39.897C131.978 40.1973 132.382 40.3475 132.91 40.3475C133.465 40.3674 134.01 40.1969 134.453 39.8645L135.225 41.817Z" fill="#C4C4C4"/>
  <path d="M139.177 41.8388C138.244 41.3485 137.469 40.6066 136.939 39.698C136.412 38.7485 136.135 37.6812 136.135 36.596C136.135 35.5108 136.412 34.4434 136.939 33.4939C137.472 32.5904 138.247 31.853 139.177 31.3648C140.178 30.8595 141.284 30.5962 142.406 30.5962C143.528 30.5962 144.634 30.8595 145.635 31.3648C146.566 31.8526 147.341 32.5901 147.873 33.4939C148.401 34.4431 148.678 35.5106 148.678 36.596C148.678 37.6813 148.401 38.7488 147.873 39.698C147.344 40.6069 146.568 41.3488 145.635 41.8388C144.634 42.3441 143.528 42.6074 142.406 42.6074C141.284 42.6074 140.178 42.3441 139.177 41.8388ZM144.911 39.2424C145.573 38.5699 145.903 37.6841 145.903 36.5849C145.902 35.4858 145.571 34.6004 144.911 33.9288C144.251 33.2546 143.413 32.9179 142.398 32.9187C141.384 32.9196 140.55 33.2563 139.896 33.9288C139.242 34.6012 138.915 35.4866 138.915 36.5849C138.915 37.6832 139.242 38.569 139.896 39.2424C140.55 39.9166 141.384 40.2533 142.398 40.2524C143.412 40.2515 144.247 39.9166 144.902 39.2476L144.911 39.2424Z" fill="#C4C4C4"/>
  <path d="M158.128 30.6001V33.2121C157.917 33.1715 157.703 33.1498 157.489 33.1472C156.415 33.1472 155.577 33.4584 154.975 34.0806C154.373 34.7029 154.072 35.5996 154.072 36.7705V42.458H151.316V30.7299H153.939V32.4423C154.733 31.2141 156.129 30.6001 158.128 30.6001Z" fill="#C4C4C4"/>
  <path d="M171.375 37.4691H162.14C162.276 38.2927 162.732 39.0302 163.408 39.5228C164.091 40.0274 164.939 40.2797 165.953 40.2797C167.247 40.2797 168.313 39.8552 169.15 39.0062L170.626 40.6938C170.088 41.33 169.399 41.8211 168.621 42.1219C167.748 42.4559 166.819 42.6198 165.884 42.6048C164.59 42.6048 163.451 42.3487 162.467 41.8363C161.515 41.3563 160.723 40.613 160.185 39.6955C159.641 38.7507 159.363 37.6768 159.381 36.5876C159.365 35.5088 159.635 34.4449 160.163 33.503C160.671 32.6009 161.423 31.8591 162.334 31.3622C163.293 30.8417 164.37 30.577 165.462 30.5937C166.535 30.5754 167.595 30.8363 168.537 31.3505C169.431 31.8461 170.165 32.585 170.653 33.4809C171.161 34.3957 171.414 35.4534 171.413 36.6538C171.42 36.8472 171.405 37.1172 171.375 37.4691ZM163.231 33.5744C162.615 34.1057 162.218 34.8458 162.118 35.6516H168.796C168.706 34.8533 168.321 34.1171 167.716 33.5861C167.112 33.059 166.363 32.7955 165.467 32.7955C164.651 32.7718 163.855 33.0481 163.231 33.5718V33.5744Z" fill="#C4C4C4"/>
</svg>
  