<svg width="190" height="58" viewBox="0 0 190 58" fill="none"
  xmlns="http://www.w3.org/2000/svg">
  <path d="M182.655 1.29822C184.257 1.29994 185.792 1.93441 186.925 3.06245C188.058 4.1905 188.695 5.72001 188.697 7.31547V50.2451C188.695 51.8406 188.058 53.3703 186.925 54.4986C185.793 55.6268 184.257 56.2616 182.655 56.2636H7.3446C5.74294 56.2616 4.20746 55.6268 3.07492 54.4986C1.94238 53.3703 1.30522 51.8406 1.30315 50.2451V7.31547C1.30522 5.72001 1.94244 4.1905 3.07501 3.06245C4.20759 1.93441 5.74306 1.29994 7.3446 1.29822H182.655ZM182.655 1.15205e-07H7.3446C6.38015 -0.000170389 5.42511 0.188922 4.53403 0.556483C3.64295 0.924043 2.83328 1.46287 2.15126 2.14219C1.46923 2.82151 0.928206 3.62802 0.55909 4.51566C0.189975 5.4033 -1.51865e-08 6.35468 0 7.31547V50.2451C0 52.1856 0.773816 54.0466 2.15119 55.4188C3.52857 56.791 5.39669 57.5618 7.3446 57.5618H182.655C183.62 57.5618 184.575 57.3726 185.466 57.0049C186.357 56.6372 187.167 56.0982 187.849 55.4188C188.531 54.7394 189.072 53.9328 189.441 53.0451C189.81 52.1574 190 51.2059 190 50.2451V7.31547C190 6.35468 189.81 5.4033 189.441 4.51566C189.072 3.62802 188.531 2.82151 187.849 2.14219C187.167 1.46287 186.357 0.924043 185.466 0.556483C184.575 0.188922 183.62 -0.000170389 182.655 1.15205e-07Z" fill="#C4C4C4"/>
  <path d="M59.0865 16.4782H53.8505L52.7024 19.0097H51.9961L56.1505 10.0156H56.8021L60.9566 19.0097H60.2464L59.0865 16.4782ZM58.8416 15.9264L56.4685 10.7335L54.1085 15.9264H58.8416Z" fill="#C4C4C4"/>
  <path d="M67.4591 12.3032L64.415 19.0098H63.7569L60.7271 12.3032H61.4099L64.0931 18.3036L66.8024 12.3032H67.4591Z" fill="#C4C4C4"/>
  <path d="M72.8465 12.8875C73.293 13.3116 73.5167 13.9347 73.5176 14.7569V19.0099H72.8986V17.8155C72.6841 18.209 72.3558 18.5293 71.9564 18.7347C71.4966 18.9634 70.9872 19.0758 70.4734 19.0618C69.7254 19.0618 69.1342 18.8861 68.6998 18.5347C68.4996 18.3679 68.3376 18.1601 68.2248 17.9256C68.1121 17.691 68.0512 17.435 68.0462 17.175C68.0413 16.915 68.0924 16.6569 68.1962 16.4182C68.3 16.1796 68.4539 15.9659 68.6477 15.7916C69.0482 15.4454 69.6867 15.2723 70.5633 15.2723H72.8725V14.7322C72.8725 14.1078 72.7031 13.6313 72.363 13.3042C72.0229 12.977 71.5264 12.8148 70.8735 12.8148C70.435 12.8134 69.9999 12.8921 69.5899 13.0471C69.2061 13.1846 68.8522 13.3939 68.5473 13.6638L68.2333 13.2003C68.5871 12.8899 68.9989 12.6521 69.4452 12.5006C69.9214 12.3328 70.4231 12.248 70.9282 12.25C71.7622 12.2509 72.4017 12.4634 72.8465 12.8875ZM71.989 18.1492C72.3924 17.8765 72.7011 17.486 72.8725 17.0314V15.7721H70.5764C69.9144 15.7721 69.4365 15.892 69.1429 16.1317C68.9966 16.2507 68.8802 16.4021 68.803 16.5739C68.7259 16.7456 68.6901 16.933 68.6985 17.121C68.6898 17.3206 68.7298 17.5195 68.8152 17.7003C68.9005 17.8812 69.0286 18.0388 69.1885 18.1595C69.5152 18.4131 69.9752 18.5395 70.5685 18.5386C71.0716 18.5527 71.5675 18.4171 71.9929 18.1492H71.989Z" fill="#C4C4C4"/>
  <path d="M76.1264 10.5235C76.0761 10.4765 76.0363 10.4196 76.0096 10.3563C75.9829 10.293 75.9698 10.2248 75.9713 10.1561C75.9713 10.0873 75.985 10.0191 76.0117 9.95559C76.0384 9.89207 76.0775 9.83447 76.1267 9.78614C76.176 9.73782 76.2343 9.69974 76.2985 9.6741C76.3626 9.64847 76.4313 9.6358 76.5004 9.63683C76.5694 9.63541 76.638 9.64764 76.7022 9.67282C76.7664 9.698 76.8249 9.73563 76.8744 9.78353C76.9249 9.8303 76.9649 9.88726 76.9916 9.9506C77.0183 10.0139 77.0313 10.0822 77.0295 10.1509C77.0295 10.2198 77.0157 10.288 76.989 10.3515C76.9623 10.415 76.9233 10.4726 76.874 10.5209C76.8248 10.5692 76.7664 10.6073 76.7023 10.6329C76.6381 10.6586 76.5695 10.6713 76.5004 10.6702C76.4314 10.6716 76.3628 10.6594 76.2986 10.6342C76.2344 10.609 76.1759 10.5714 76.1264 10.5235ZM76.1785 12.3034H76.8236V19.01H76.1785V12.3034Z" fill="#C4C4C4"/>
  <path d="M79.5444 9.47559H80.1895V19.0097H79.5444V9.47559Z" fill="#C4C4C4"/>
  <path d="M87.1044 12.8875C87.5518 13.3116 87.7751 13.9347 87.7743 14.7569V19.0099H87.1553V17.8155C86.9409 18.2087 86.6132 18.5288 86.2144 18.7346C85.7541 18.9636 85.2443 19.076 84.7301 19.0618C83.982 19.0618 83.3909 18.8861 82.9565 18.5347C82.7563 18.3678 82.5944 18.16 82.4818 17.9253C82.3692 17.6907 82.3084 17.4347 82.3035 17.1747C82.2987 16.9147 82.35 16.6566 82.4539 16.418C82.5577 16.1794 82.7118 15.9658 82.9056 15.7916C83.3044 15.4454 83.9429 15.2723 84.8213 15.2723H87.1292V14.7322C87.1292 14.1078 86.9598 13.6313 86.6196 13.3042C86.2795 12.977 85.783 12.8148 85.1301 12.8148C84.6916 12.8135 84.2565 12.8922 83.8465 13.0471C83.4629 13.1849 83.109 13.3942 82.804 13.6638L82.4899 13.2003C82.8437 12.8899 83.2556 12.6521 83.7019 12.5006C84.1785 12.3328 84.6806 12.248 85.1862 12.25C86.0176 12.2509 86.657 12.4634 87.1044 12.8875ZM86.2456 18.1491C86.6491 17.8765 86.9578 17.486 87.1292 17.0314V15.7721H84.8356C84.1736 15.7721 83.6958 15.892 83.4022 16.1317C83.2554 16.2504 83.1387 16.4018 83.0613 16.5736C82.9839 16.7454 82.948 16.9328 82.9565 17.121C82.9481 17.3206 82.9883 17.5193 83.0736 17.7001C83.1589 17.881 83.2868 18.0386 83.4465 18.1595C83.774 18.4131 84.2344 18.5395 84.8278 18.5386C85.3287 18.5515 85.8222 18.4159 86.2456 18.1491Z" fill="#C4C4C4"/>
  <path d="M95.5134 12.6809C96.017 12.964 96.4306 13.3823 96.7071 13.8882C96.9906 14.4332 97.1385 15.0381 97.1385 15.6519C97.1385 16.2657 96.9906 16.8705 96.7071 17.4155C96.4281 17.9199 96.0151 18.338 95.5134 18.6242C94.9952 18.9178 94.4077 19.0684 93.8115 19.0604C93.2379 19.0686 92.673 18.9195 92.1787 18.6293C91.6953 18.3444 91.3037 17.9278 91.0501 17.4285V19.0084H90.4312V9.47559H91.0762V13.8311C91.3315 13.3436 91.7206 12.9384 92.1982 12.6627C92.6886 12.3816 93.2458 12.2372 93.8115 12.2447C94.4075 12.2378 94.9948 12.3883 95.5134 12.6809ZM95.1655 18.1217C95.577 17.8841 95.914 17.5371 96.139 17.1195C96.3719 16.6663 96.4934 16.1643 96.4934 15.6551C96.4934 15.1459 96.3719 14.644 96.139 14.1907C95.9137 13.7731 95.5768 13.4257 95.1655 13.1872C94.7419 12.9451 94.2608 12.8209 93.7724 12.8276C93.2861 12.8202 92.8068 12.9445 92.3859 13.1872C91.9775 13.4277 91.6427 13.7747 91.4176 14.1907C91.1847 14.644 91.0632 15.1459 91.0632 15.6551C91.0632 16.1643 91.1847 16.6663 91.4176 17.1195C91.6421 17.5357 91.9771 17.8823 92.3859 18.1217C92.8065 18.3655 93.2859 18.4903 93.7724 18.4827C94.2608 18.49 94.7421 18.3657 95.1655 18.123V18.1217Z" fill="#C4C4C4"/>
  <path d="M99.1387 9.47559H99.7824V19.0097H99.1387V9.47559Z" fill="#C4C4C4"/>
  <path d="M108.193 15.811H102.402C102.41 16.3025 102.547 16.7832 102.8 17.2053C103.045 17.6068 103.396 17.9334 103.814 18.1491C104.225 18.3519 104.674 18.4654 105.132 18.4819C105.591 18.4985 106.047 18.4178 106.471 18.2451C106.837 18.0936 107.158 17.853 107.406 17.5454L107.78 17.9699C107.483 18.3242 107.105 18.6018 106.677 18.7787C106.16 18.9888 105.603 19.0839 105.044 19.0574C104.486 19.031 103.941 18.8836 103.446 18.6255C102.931 18.3431 102.505 17.9249 102.214 17.4169C101.911 16.8799 101.758 16.2722 101.77 15.6565C101.76 15.0462 101.904 14.4432 102.188 13.9026C102.454 13.3996 102.853 12.9793 103.343 12.6874C103.845 12.4033 104.413 12.2539 104.99 12.2539C105.568 12.2539 106.136 12.4033 106.638 12.6874C107.125 12.9744 107.522 13.3901 107.786 13.8883C108.072 14.4261 108.216 15.0273 108.206 15.6357L108.193 15.811ZM103.717 13.1314C103.338 13.3402 103.023 13.6465 102.804 14.0181C102.573 14.414 102.439 14.8589 102.413 15.3163H107.573C107.553 14.8619 107.419 14.4197 107.182 14.0311C106.955 13.6558 106.632 13.3465 106.247 13.1343C105.862 12.9222 105.428 12.8147 104.988 12.8225C104.545 12.8147 104.107 12.9211 103.717 13.1314Z" fill="#C4C4C4"/>
  <path d="M114.43 18.6255C113.923 18.3389 113.506 17.9184 113.223 17.4104C112.936 16.8705 112.786 16.2688 112.786 15.6578C112.786 15.0468 112.936 14.4451 113.223 13.9052C113.506 13.3972 113.923 12.9767 114.43 12.6901C114.958 12.4039 115.55 12.2539 116.152 12.2539C116.753 12.2539 117.345 12.4039 117.873 12.6901C118.38 12.9767 118.797 13.3972 119.08 13.9052C119.368 14.4449 119.518 15.0467 119.518 15.6578C119.518 16.2689 119.368 16.8707 119.08 17.4104C118.797 17.9184 118.38 18.3389 117.873 18.6255C117.345 18.9118 116.753 19.0617 116.152 19.0617C115.55 19.0617 114.958 18.9118 114.43 18.6255ZM117.538 18.1231C117.947 17.8834 118.281 17.5368 118.506 17.1209C118.739 16.6676 118.861 16.1657 118.861 15.6565C118.861 15.1473 118.739 14.6454 118.506 14.1921C118.281 13.7761 117.946 13.4291 117.538 13.1886C117.114 12.9528 116.637 12.829 116.152 12.829C115.666 12.829 115.189 12.9528 114.765 13.1886C114.357 13.4289 114.022 13.7759 113.798 14.1921C113.564 14.6451 113.442 15.1471 113.442 15.6565C113.442 16.1659 113.564 16.6679 113.798 17.1209C114.022 17.537 114.356 17.8837 114.765 18.1231C115.188 18.3598 115.666 18.4841 116.152 18.4841C116.637 18.4841 117.115 18.3598 117.538 18.1231Z" fill="#C4C4C4"/>
  <path d="M126.806 12.9837C127.296 13.4719 127.541 14.1742 127.541 15.0908V19.0101H126.896V15.1479C126.896 14.3932 126.705 13.8194 126.323 13.4264C125.941 13.0335 125.404 12.8345 124.712 12.8293C123.92 12.8293 123.296 13.0651 122.841 13.5368C122.386 14.0085 122.158 14.6424 122.158 15.4387V19.0101H121.506V12.3035H122.125V13.7549C122.352 13.2897 122.716 12.9043 123.168 12.6501C123.666 12.3745 124.23 12.2369 124.799 12.2516C125.646 12.2516 126.315 12.4956 126.806 12.9837Z" fill="#C4C4C4"/>
  <path d="M136.855 18.5865C136.679 18.7475 136.47 18.8681 136.242 18.9396C135.995 19.0214 135.735 19.0626 135.475 19.0616C134.889 19.0616 134.437 18.9011 134.119 18.58C133.801 18.258 133.642 17.8115 133.642 17.2363V12.8548H132.4V12.3031H133.638V10.8374H134.283V12.3031H136.425V12.8548H134.283V17.1727C134.283 17.6102 134.389 17.9413 134.599 18.1685C134.809 18.3957 135.12 18.5086 135.534 18.5086C135.917 18.5221 136.29 18.3887 136.577 18.136L136.855 18.5865Z" fill="#C4C4C4"/>
  <path d="M143.936 12.9834C144.426 13.4715 144.671 14.1739 144.671 15.0904V19.0097H144.026V15.1475C144.026 14.3928 143.835 13.819 143.453 13.4261C143.07 13.0331 142.535 12.8358 141.846 12.8341C141.054 12.8341 140.431 13.0699 139.976 13.5416C139.521 14.0133 139.293 14.6473 139.292 15.4435V19.0149H138.648V9.47559H139.292V13.7026C139.517 13.248 139.877 12.8735 140.324 12.6303C140.82 12.3675 141.376 12.2369 141.937 12.2512C142.779 12.2512 143.445 12.4953 143.936 12.9834Z" fill="#C4C4C4"/>
  <path d="M153.029 15.811H147.238C147.246 16.3025 147.384 16.7832 147.637 17.2053C147.881 17.6068 148.232 17.9334 148.651 18.1491C149.061 18.3519 149.511 18.4654 149.969 18.4819C150.427 18.4985 150.883 18.4178 151.308 18.2451C151.673 18.0936 151.995 17.853 152.242 17.5454L152.616 17.9699C152.32 18.3242 151.941 18.6018 151.514 18.7787C150.996 18.9888 150.439 19.0839 149.881 19.0574C149.323 19.031 148.777 18.8836 148.282 18.6255C147.768 18.3431 147.342 17.9249 147.05 17.4169C146.748 16.8799 146.594 16.2722 146.606 15.6565C146.596 15.0462 146.74 14.4432 147.024 13.9026C147.29 13.3996 147.689 12.9793 148.179 12.6874C148.681 12.4033 149.249 12.2539 149.827 12.2539C150.405 12.2539 150.972 12.4033 151.475 12.6874C151.961 12.9744 152.359 13.3901 152.623 13.8883C152.908 14.4261 153.053 15.0273 153.042 15.6357L153.029 15.811ZM148.56 13.1314C148.181 13.3402 147.866 13.6465 147.647 14.0181C147.415 14.4137 147.281 14.8588 147.256 15.3163H152.416C152.396 14.8619 152.262 14.4197 152.025 14.0311C151.798 13.6558 151.475 13.3465 151.09 13.1343C150.705 12.9222 150.271 12.8147 149.831 12.8225C149.388 12.8147 148.95 12.9211 148.56 13.1314Z" fill="#C4C4C4"/>
  <path d="M62.2676 34.7702H64.9182V40.7576C64.1078 41.391 63.1878 41.8711 62.2037 42.174C61.1731 42.5031 60.0972 42.6699 59.0149 42.6686C57.5669 42.6898 56.137 42.3464 54.8578 41.6703C53.6533 41.0336 52.6472 40.0798 51.9492 38.9129C51.2573 37.703 50.8936 36.3346 50.8936 34.9422C50.8936 33.5499 51.2573 32.1815 51.9492 30.9716C52.6487 29.8022 53.6589 28.848 54.8682 28.2142C56.1587 27.5367 57.5994 27.1934 59.0579 27.2159C60.2364 27.2001 61.4069 27.4117 62.5047 27.839C63.5064 28.2293 64.4 28.8525 65.111 29.6565L63.3453 31.3754C62.8065 30.8217 62.1595 30.3837 61.4443 30.0886C60.7292 29.7934 59.9609 29.6473 59.1869 29.6591C58.2016 29.641 57.2275 29.8696 56.3538 30.3238C55.5446 30.7523 54.873 31.3993 54.4161 32.1907C53.9395 33.0272 53.6973 33.976 53.7149 34.9377C53.7006 35.8855 53.9428 36.8196 54.4161 37.6419C54.8758 38.4367 55.5462 39.0902 56.3538 39.5308C57.2159 39.9979 58.1848 40.2345 59.166 40.2176C60.3432 40.2176 61.3771 39.9601 62.2676 39.4451V34.7702Z" fill="#C4C4C4"/>
  <path d="M70.3705 41.8521C69.4587 41.3737 68.7008 40.6488 68.1838 39.7607C67.653 38.8368 67.3828 37.7872 67.4019 36.7228C67.3821 35.6625 67.6524 34.6169 68.1838 33.698C68.7042 32.8161 69.4615 32.0967 70.3705 31.6208C71.3484 31.1267 72.4295 30.8691 73.5261 30.8691C74.6226 30.8691 75.7037 31.1267 76.6817 31.6208C77.5906 32.0967 78.348 32.8161 78.8683 33.698C79.3997 34.6169 79.67 35.6625 79.6502 36.7228C79.6693 37.7872 79.3991 38.8368 78.8683 39.7607C78.3514 40.6488 77.5935 41.3737 76.6817 41.8521C75.7037 42.3463 74.6226 42.6038 73.5261 42.6038C72.4295 42.6038 71.3484 42.3463 70.3705 41.8521ZM75.974 39.3206C76.6204 38.662 76.9436 37.7965 76.9436 36.7241C76.9436 35.6518 76.6204 34.7863 75.974 34.1277C75.3277 33.4691 74.5089 33.1402 73.5176 33.141C72.5263 33.1419 71.7114 33.4708 71.0729 34.1277C70.4343 34.7855 70.1146 35.6509 70.1138 36.7241C70.1129 37.7973 70.4326 38.6628 71.0729 39.3206C71.7114 39.9783 72.5263 40.3072 73.5176 40.3072C74.5089 40.3072 75.3277 39.9783 75.974 39.3206Z" fill="#C4C4C4"/>
  <path d="M84.262 41.8521C83.3508 41.3729 82.5931 40.6482 82.0753 39.7607C81.5451 38.8366 81.275 37.7871 81.2934 36.7229C81.2741 35.6626 81.5444 34.6171 82.0753 33.698C82.5965 32.8168 83.3537 32.0975 84.262 31.6208C85.2402 31.1267 86.3215 30.8691 87.4183 30.8691C88.515 30.8691 89.5963 31.1267 90.5745 31.6208C91.4829 32.0975 92.2401 32.8168 92.7612 33.698C93.2922 34.6171 93.5624 35.6626 93.5431 36.7229C93.5615 37.7871 93.2914 38.8366 92.7612 39.7607C92.2421 40.649 91.4825 41.3737 90.5693 41.8521C89.5911 42.3463 88.5098 42.6038 87.4131 42.6038C86.3163 42.6038 85.235 42.3463 84.2568 41.8521H84.262ZM89.8656 39.3206C90.512 38.662 90.8351 37.7965 90.8351 36.7242C90.8351 35.6518 90.512 34.7863 89.8656 34.1277C89.2192 33.4691 88.4008 33.1402 87.4104 33.1411C86.4201 33.1419 85.6051 33.4708 84.9657 34.1277C84.3263 34.7855 84.0066 35.651 84.0066 36.7242C84.0066 37.7973 84.3263 38.6628 84.9657 39.3206C85.6043 39.9784 86.4192 40.3072 87.4104 40.3072C88.4017 40.3072 89.2192 39.9784 89.863 39.3206H89.8656Z" fill="#C4C4C4"/>
  <path d="M107.549 30.9936V40.7146C107.549 44.7495 105.481 46.7669 101.345 46.7669C100.283 46.7729 99.2244 46.6322 98.2006 46.3489C97.3065 46.1181 96.4701 45.7052 95.7441 45.1364L96.9509 43.1189C97.5178 43.5678 98.1646 43.9061 98.8574 44.116C99.6116 44.3646 100.401 44.4917 101.195 44.4925C102.458 44.4925 103.384 44.2064 103.974 43.6343C104.563 43.0623 104.858 42.1894 104.857 41.0158V40.4147C104.393 40.9187 103.817 41.308 103.176 41.552C102.482 41.8165 101.744 41.9486 101.001 41.9415C99.9709 41.9563 98.9532 41.7163 98.039 41.243C97.1747 40.794 96.4528 40.1144 95.954 39.2801C95.4352 38.4031 95.1705 37.4002 95.189 36.3825C95.1696 35.3683 95.4345 34.3689 95.954 33.4965C96.4533 32.6666 97.1754 31.9921 98.039 31.5492C98.9557 31.0839 99.9724 30.8481 101.001 30.8624C101.778 30.8523 102.55 30.9911 103.274 31.2714C103.942 31.5334 104.531 31.9616 104.986 32.5151V30.9936H107.549ZM103.92 38.7517C104.573 38.1459 104.9 37.3553 104.9 36.3799C104.9 35.4218 104.573 34.6429 103.92 34.0431C103.267 33.4433 102.43 33.143 101.41 33.1421C100.376 33.1421 99.532 33.4424 98.8795 34.0431C98.2271 34.6437 97.9 35.4226 97.8983 36.3799C97.8983 37.3535 98.2254 38.1442 98.8795 38.7517C99.5337 39.3593 100.377 39.6622 101.41 39.6605C102.429 39.6622 103.266 39.3593 103.92 38.7517Z" fill="#C4C4C4"/>
  <path d="M111.082 26.5293H113.776V42.4533H111.082V26.5293Z" fill="#C4C4C4"/>
  <path d="M128.079 37.5824H119.054C119.187 38.3866 119.631 39.1066 120.292 39.5881C120.959 40.0832 121.788 40.3303 122.779 40.3294C124.043 40.3294 125.086 39.9144 125.907 39.0844L127.351 40.7371C126.827 41.3577 126.155 41.8371 125.396 42.1314C124.544 42.4577 123.637 42.6181 122.725 42.6039C121.46 42.6039 120.347 42.3534 119.385 41.8522C118.455 41.3827 117.681 40.6567 117.155 39.7608C116.625 38.8367 116.355 37.7872 116.373 36.723C116.358 35.6686 116.621 34.6289 117.138 33.7085C117.635 32.827 118.37 32.102 119.259 31.6158C120.197 31.1065 121.251 30.8475 122.319 30.8641C123.369 30.847 124.404 31.1025 125.324 31.6054C126.198 32.0883 126.915 32.8087 127.392 33.6825C127.888 34.5774 128.135 35.6112 128.135 36.784C128.127 36.9727 128.108 37.2388 128.079 37.5824ZM120.12 33.7721C119.517 34.2909 119.129 35.0139 119.031 35.8012H125.559C125.471 35.0215 125.095 34.3023 124.503 33.7838C123.914 33.2645 123.182 33.007 122.306 33.0113C121.508 32.9884 120.73 33.2593 120.12 33.7721Z" fill="#C4C4C4"/>
  <path d="M146.531 28.0741C147.442 28.4551 148.218 29.0978 148.76 29.9202C149.276 30.7216 149.535 31.6736 149.536 32.7763C149.559 33.7787 149.289 34.7663 148.76 35.6194C148.221 36.4468 147.444 37.0935 146.531 37.4758C145.561 37.9086 144.423 38.1249 143.115 38.1249H139.713V42.4597H136.912V27.4302H143.115C144.423 27.4302 145.561 27.6448 146.531 28.0741ZM145.766 34.9845C146.398 34.4704 146.714 33.7348 146.713 32.7776C146.712 31.8203 146.396 31.0847 145.766 30.5706C145.133 30.0513 144.207 29.7916 142.986 29.7916H139.713V35.7635H142.986C144.208 35.76 145.134 35.5004 145.766 34.9845Z" fill="#C4C4C4"/>
  <path d="M152.293 26.5293H154.985V42.4533H152.293V26.5293Z" fill="#C4C4C4"/>
  <path d="M166.804 32.0765C167.701 32.8857 168.15 34.1056 168.151 35.7361V42.4531H165.609V41.0589C165.263 41.572 164.771 41.9714 164.197 42.2065C163.497 42.4882 162.745 42.6234 161.99 42.6037C161.213 42.6207 160.441 42.4706 159.728 42.1636C159.123 41.9045 158.604 41.4806 158.23 40.9407C157.878 40.4175 157.694 39.7999 157.702 39.1699C157.702 38.1409 158.086 37.3148 158.854 36.6916C159.622 36.0685 160.833 35.7573 162.485 35.7582H165.457V35.5855C165.457 34.785 165.217 34.17 164.736 33.7408C164.254 33.3115 163.54 33.0951 162.592 33.0917C161.945 33.0919 161.301 33.1931 160.685 33.3916C160.109 33.5674 159.571 33.8516 159.102 34.2289L158.046 32.2816C158.7 31.7991 159.438 31.442 160.223 31.2287C161.099 30.9818 162.005 30.859 162.915 30.8639C164.609 30.8639 165.905 31.2681 166.804 32.0765ZM164.349 40.189C164.863 39.8935 165.256 39.4263 165.457 38.87V37.5394H162.679C161.128 37.5394 160.352 38.047 160.352 39.0622C160.345 39.2884 160.395 39.5127 160.496 39.715C160.598 39.9173 160.748 40.0914 160.934 40.2215C161.321 40.5088 161.859 40.6521 162.549 40.6512C163.179 40.662 163.8 40.5022 164.346 40.189H164.349Z" fill="#C4C4C4"/>
  <path d="M182.151 30.9937L176.765 43.3761C176.262 44.6206 175.652 45.4969 174.934 46.005C174.216 46.513 173.348 46.767 172.328 46.767C171.749 46.7662 171.174 46.672 170.626 46.4879C170.116 46.3308 169.646 46.0675 169.247 45.7155L170.323 43.7409C170.589 43.9883 170.899 44.185 171.236 44.3212C171.574 44.4613 171.936 44.5341 172.302 44.5354C172.723 44.5515 173.137 44.4227 173.474 44.1706C173.783 43.9265 174.067 43.5189 174.325 42.9477L174.52 42.4959L169.5 30.9937H172.3L175.926 39.4697L179.567 30.9937H182.151Z" fill="#C4C4C4"/>
  <path d="M45.7185 28.0456L38.4795 23.8848L32.5254 29.6177L37.9661 34.8573L45.7185 30.4005C45.9258 30.281 46.0978 30.1093 46.2175 29.9027C46.3371 29.696 46.4 29.4616 46.4 29.2231C46.4 28.9845 46.3371 28.7501 46.2175 28.5435C46.0978 28.3368 45.9258 28.1651 45.7185 28.0456Z" fill="#C4C4C4"/>
  <path d="M37.2507 23.177L29.2845 18.5969L11.8262 9.68457L31.5442 28.6724L37.2507 23.177Z" fill="#C4C4C4"/>
  <path d="M12.1152 49.2725L29.3143 39.8344L36.7384 35.5645L31.544 30.5625L12.1152 49.2725Z" fill="#C4C4C4"/>
  <path d="M10.6613 10.4521L10.6431 48.8016L30.5631 29.6178L10.6613 10.4521Z" fill="#C4C4C4"/>
</svg>
  