<svg version="1.1" id="Слой_1"
	xmlns="http://www.w3.org/2000/svg"
	xmlns:xlink="http://www.w3.org/1999/xlink" x="0px" y="0px" width="40px" height="40px" viewBox="0 0 40 40" enable-background="new 0 0 40 40" xml:space="preserve">
	<path fill="#FFFFFF" stroke="#C4C4C4" stroke-width="3" d="M25.02,19.54L25.02,19.54L25.02,19.54L25.02,19.54l0.03-0.04
	c0.02-0.03,0.05-0.07,0.09-0.13c0.08-0.11,0.19-0.27,0.33-0.47c0.27-0.4,0.64-0.94,1.02-1.53c0.38-0.59,0.75-1.2,1.05-1.74
	c0.02-0.04,0.04-0.07,0.06-0.11h-1.01c-0.04,0.08-0.08,0.18-0.14,0.3c-0.15,0.33-0.37,0.78-0.65,1.3c-0.55,1.02-1.36,2.37-2.34,3.46
	l-0.03,0.03l-0.03,0.03c-0.28,0.28-0.58,0.56-0.88,0.76c-0.14,0.1-0.3,0.18-0.47,0.25c0.82,0.18,1.71,0.76,2.9,1.91l0.01,0.01
	l0.01,0.01c0.43,0.43,0.77,0.81,1.05,1.11c0.04,0.05,0.09,0.09,0.12,0.14c0.22,0.24,0.37,0.41,0.5,0.54
	c0.07,0.06,0.11,0.1,0.14,0.13h1.1c-0.3-0.38-0.67-0.82-1.12-1.32l-0.01-0.01l-0.01-0.01c-0.23-0.27-0.53-0.56-0.85-0.88
	c-0.02-0.02-0.04-0.04-0.06-0.06c-0.26-0.25-0.6-0.59-0.81-0.86c-0.25-0.33-0.58-0.86-0.52-1.57c0.04-0.54,0.32-0.99,0.42-1.14
	c0.01-0.01,0.01-0.02,0.02-0.03l0.03-0.05L25.02,19.54z M25.02,19.54L25.02,19.54L25.02,19.54z M28.51,26.49
	C28.51,26.49,28.51,26.49,28.51,26.49C28.51,26.49,28.51,26.49,28.51,26.49z M29.18,25.5c0,0-0.01,0-0.02,0
	C29.17,25.5,29.18,25.5,29.18,25.5z M19.35,19.62c0,0.67,0.32,1.79,1.3,2.11c-0.27,0.1-0.56,0.27-0.81,0.57
	c-0.26,0.32-0.36,0.66-0.41,0.91c-0.05,0.25-0.06,0.49-0.06,0.7v1.57c-0.07,0-0.14,0-0.22,0c-1.96,0-4.36-1.2-6.12-3.73l-0.01-0.01
	l-0.01-0.01c-1.43-1.99-2.32-3.72-2.86-4.99c-0.2-0.49-0.35-0.9-0.46-1.24h1.2c0.63,1.78,1.46,3.45,2.26,4.7
	c0.4,0.63,0.82,1.2,1.24,1.63c0.2,0.21,0.44,0.43,0.7,0.6c0.24,0.15,0.65,0.38,1.18,0.38c0.17,0,0.48-0.02,0.81-0.16
	c0.37-0.17,0.65-0.45,0.83-0.77c0.28-0.51,0.3-1.1,0.3-1.47v-3.52v-0.04l0-0.04c-0.03-0.52-0.12-0.94-0.24-1.31h1.38V19.62z
	 M19.38,26.09C19.38,26.09,19.38,26.09,19.38,26.09C19.38,26.09,19.38,26.09,19.38,26.09z M19.88,25.43
	C19.88,25.42,19.88,25.42,19.88,25.43C19.88,25.42,19.88,25.42,19.88,25.43z M8.78,15.5C8.78,15.5,8.78,15.5,8.78,15.5L8.78,15.5z
	 M26.68,15.31C26.68,15.31,26.68,15.31,26.68,15.31L26.68,15.31C26.68,15.31,26.68,15.31,26.68,15.31z M28.81,15.52c0,0,0,0-0.01,0
	C28.8,15.52,28.81,15.52,28.81,15.52z M28.05,14.45c0-0.01,0-0.01,0-0.01C28.06,14.43,28.06,14.44,28.05,14.45z"/>
	<path fill="#C4C4C4" d="M39.29,19.66c0,2.76-0.06,5.52,0.02,8.28c0.12,4.88-2.95,8.65-6.85,10.33c-1.57,0.67-3.22,1.03-4.92,1.03
	c-5.33,0.01-10.67,0.08-16-0.02c-4.02-0.08-7.32-1.76-9.69-5.07C0.59,32.46,0,30.48,0,28.33c0-5.68,0-11.35,0-17.03
	c0-4.63,2.26-7.87,6.27-9.98c1.74-0.91,3.64-1.3,5.61-1.31c5.17,0,10.35-0.03,15.53,0.02c4.02,0.03,7.37,1.57,9.84,4.8
	c1.38,1.81,2.04,3.88,2.04,6.16C39.29,13.87,39.29,16.77,39.29,19.66z M2.92,19.66c0,2.91,0,5.81,0,8.71c0,1.3,0.3,2.52,0.97,3.62
	c1.77,2.89,4.44,4.3,7.75,4.36c5.32,0.08,10.64,0.03,15.96,0.02c1.31,0,2.57-0.27,3.76-0.83c3.22-1.54,5.01-3.98,5-7.66
	c-0.03-5.62-0.01-11.25-0.01-16.87c0-1.59-0.45-3.05-1.39-4.33c-1.82-2.46-4.34-3.68-7.35-3.71C22.3,2.89,16.99,2.93,11.69,2.94
	c-1.13,0-2.23,0.23-3.29,0.63C5.48,4.65,2.77,7.4,2.9,11.45C2.99,14.19,2.92,16.92,2.92,19.66z"/>
</svg>
