<svg width="40" height="40" viewBox="0 0 40 40" fill="none"
  xmlns="http://www.w3.org/2000/svg">
  <path d="M14.0508 29.7207L31.5001 19.6477L14.0508 9.57227V29.7207ZM16.4321 13.6968L26.7374 19.6478L16.4321 25.5963V13.6968Z" fill="#C4C4C4"/>
  <path d="M39.2855 19.6571C39.2855 22.414 39.2301 25.1788 39.3014 27.9356C39.4202 32.8156 36.3544 36.5866 32.4488 38.266C30.8802 38.9394 29.2324 39.2959 27.5292 39.2959C22.1976 39.3038 16.8582 39.3751 11.5266 39.2721C7.51012 39.1929 4.20662 37.5134 1.83792 34.202C0.594155 32.4592 0 30.4786 0 28.3318C0 22.6516 0 16.9794 0 11.2993C0 6.66489 2.25779 3.42476 6.26636 1.31749C8.00921 0.406451 9.90259 0.0182693 11.8752 0.0103472C17.0483 0.0103472 22.2293 -0.0213411 27.4024 0.0261913C31.4189 0.0578796 34.77 1.59476 37.2417 4.82697C38.6201 6.6332 39.2855 8.70878 39.2855 10.9903C39.2855 13.874 39.2855 16.7655 39.2855 19.6571ZM2.92324 19.6571C2.92324 22.5645 2.92324 25.464 2.92324 28.3714C2.92324 29.6706 3.22428 30.8906 3.89766 31.9918C5.66428 34.8833 8.33402 36.2934 11.6454 36.3489C16.9612 36.4281 22.2848 36.3806 27.6084 36.3647C28.9156 36.3647 30.1831 36.0954 31.3635 35.5329C34.5798 33.996 36.3782 31.5481 36.3623 27.8723C36.3306 22.2476 36.3544 16.6229 36.3544 10.9983C36.3544 9.40592 35.9028 7.94826 34.9601 6.66489C33.138 4.20112 30.6188 2.98905 27.6084 2.95736C22.3006 2.89398 16.9928 2.93359 11.6851 2.94151C10.5522 2.94151 9.45895 3.17125 8.3974 3.56736C5.48207 4.65268 2.77272 7.40164 2.89948 11.4498C2.99454 14.1909 2.92324 16.924 2.92324 19.6571Z" fill="#C4C4C4"/>
</svg>
  