<svg width="40" height="40" viewBox="0 0 40 40" fill="none"
  xmlns="http://www.w3.org/2000/svg">
  <path d="M39.2855 19.6571C39.2855 22.414 39.2301 25.1788 39.3014 27.9356C39.4202 32.8156 36.3544 36.5866 32.4488 38.266C30.8802 38.9394 29.2324 39.2959 27.5292 39.2959C22.1976 39.3038 16.8582 39.3751 11.5266 39.2721C7.51012 39.1929 4.20662 37.5134 1.83792 34.202C0.594155 32.4592 0 30.4786 0 28.3318C0 22.6516 0 16.9794 0 11.2993C0 6.66489 2.25779 3.42476 6.26636 1.31749C8.00921 0.406451 9.90259 0.0182693 11.8752 0.0103472C17.0483 0.0103472 22.2293 -0.0213411 27.4024 0.0261913C31.4189 0.0578796 34.77 1.59476 37.2417 4.82697C38.6201 6.6332 39.2855 8.70878 39.2855 10.9903C39.2855 13.874 39.2855 16.7655 39.2855 19.6571ZM2.92324 19.6571C2.92324 22.5645 2.92324 25.464 2.92324 28.3714C2.92324 29.6706 3.22428 30.8906 3.89766 31.9918C5.66428 34.8833 8.33402 36.2934 11.6454 36.3489C16.9612 36.4281 22.2848 36.3806 27.6084 36.3647C28.9156 36.3647 30.1831 36.0954 31.3635 35.5329C34.5798 33.996 36.3782 31.5481 36.3623 27.8723C36.3306 22.2476 36.3544 16.6229 36.3544 10.9983C36.3544 9.40592 35.9028 7.94826 34.9601 6.66489C33.138 4.20112 30.6188 2.98905 27.6084 2.95736C22.3006 2.89398 16.9928 2.93359 11.6851 2.94151C10.5522 2.94151 9.45895 3.17125 8.3974 3.56736C5.48207 4.65268 2.77272 7.40164 2.89948 11.4498C2.99454 14.1909 2.92324 16.924 2.92324 19.6571Z" fill="#C4C4C4"/>
  <path d="M19.6863 28.0543C14.5765 28.0543 10.457 23.9823 10.4491 18.9122C10.4412 13.9213 14.5924 9.83351 19.6704 9.83351C24.7643 9.82559 28.8996 13.9055 28.9075 18.936C28.9075 23.9586 24.7802 28.0464 19.6863 28.0543ZM19.6863 25.1231C23.164 25.1231 25.9843 22.3425 25.9764 18.9201C25.9685 15.5295 23.1482 12.7568 19.6863 12.7568C16.2085 12.7568 13.3724 15.5216 13.3724 18.936C13.3803 22.3583 16.2085 25.131 19.6863 25.1231Z" fill="#C4C4C4"/>
  <path d="M29.977 7.06091C31.0465 7.06091 31.918 7.97195 31.918 9.08896C31.91 10.206 31.0307 11.1091 29.9612 11.1012C28.9076 11.0932 28.0441 10.1901 28.0441 9.09689C28.0361 7.97987 28.9076 7.06091 29.977 7.06091Z" fill="#C4C4C4"/>
</svg>
  